# Blender v2.81 (sub 16) OBJ File: ''
# www.blender.org
mtllib HeadTornadoCurve.mtl
o BezierCurve
v -1.000000 -0.237785 0.000000
v -1.000000 -0.117785 0.000000
v -0.867648 -0.234239 -0.114424
v -0.871259 -0.114334 -0.111307
v -0.727005 -0.224436 -0.203440
v -0.734460 -0.104796 -0.197901
v -0.582500 -0.209623 -0.265851
v -0.593931 -0.090389 -0.258611
v -0.438511 -0.191046 -0.300462
v -0.454049 -0.072339 -0.292259
v -0.299433 -0.169945 -0.306044
v -0.319177 -0.051875 -0.297704
v -0.169719 -0.147571 -0.281342
v -0.193616 -0.030214 -0.273829
v -0.053931 -0.125194 -0.225146
v -0.081563 -0.008556 -0.219474
v 0.043319 -0.104104 -0.136400
v 0.012841 0.011920 -0.133324
v 0.117530 -0.085579 -0.014205
v 0.085339 0.030022 -0.013907
v 0.164410 -0.070854 0.142353
v 0.131467 0.044516 0.140233
v 0.179768 -0.061135 0.334348
v 0.146659 0.054139 0.330394
v 0.159334 -0.057620 0.563408
v 0.126430 0.057620 0.557319
v 0.097306 -0.061452 0.775565
v 0.065811 0.053875 0.765179
v -0.003310 -0.071196 0.919159
v -0.030305 0.044552 0.902613
v -0.133223 -0.084121 0.998983
v -0.151956 0.032419 0.977362
v -0.281893 -0.097334 1.020124
v -0.290432 0.020082 0.996873
v -0.438545 -0.107928 0.988866
v -0.437256 0.010128 0.967396
v -0.593238 -0.113088 0.911933
v -0.583116 0.005242 0.894740
v -0.736462 -0.110011 0.795733
v -0.718272 0.008119 0.785031
v -0.858632 -0.095836 0.646364
v -0.833056 0.021395 0.644705
v -0.949871 -0.067619 0.469837
v -0.918095 0.047624 0.480286
v -0.999937 -0.022381 0.272409
v -0.964379 0.089325 0.298049
v -0.998448 0.042725 0.060972
v -0.963037 0.149148 0.103636
v -0.935482 0.130217 -0.156958
v -0.904742 0.230073 -0.097934
vn -0.6540 0.0000 -0.7565
vn -0.5962 0.0029 -0.8028
vn -0.4679 0.0117 -0.8837
vn -0.3192 0.0269 -0.9473
vn -0.1444 0.0493 -0.9883
vn 0.0605 0.0804 -0.9949
vn 0.2923 0.1203 -0.9487
vn 0.5300 0.1661 -0.8315
vn 0.7353 0.2103 -0.6443
vn 0.8748 0.2447 -0.4182
vn 0.9439 0.2659 -0.1959
vn 0.9612 0.2758 -0.0046
vn 0.9437 0.2786 0.1784
vn 0.8627 0.2739 0.4251
vn 0.6499 0.2543 0.7162
vn 0.3120 0.2219 0.9238
vn -0.0430 0.1910 0.9806
vn -0.3269 0.1724 0.9292
vn -0.5345 0.1660 0.8287
vn -0.6899 0.1699 0.7037
vn -0.8100 0.1845 0.5566
vn -0.8986 0.2129 0.3836
vn -0.9478 0.2591 0.1859
vn -0.9460 0.3235 -0.0215
vn -0.9255 0.3579 -0.1238
usemtl None
s 1
f 2//1 4//2 3//2 1//1
f 4//2 6//3 5//3 3//2
f 6//3 8//4 7//4 5//3
f 8//4 10//5 9//5 7//4
f 10//5 12//6 11//6 9//5
f 12//6 14//7 13//7 11//6
f 14//7 16//8 15//8 13//7
f 16//8 18//9 17//9 15//8
f 18//9 20//10 19//10 17//9
f 20//10 22//11 21//11 19//10
f 22//11 24//12 23//12 21//11
f 24//12 26//13 25//13 23//12
f 26//13 28//14 27//14 25//13
f 28//14 30//15 29//15 27//14
f 30//15 32//16 31//16 29//15
f 32//16 34//17 33//17 31//16
f 34//17 36//18 35//18 33//17
f 36//18 38//19 37//19 35//18
f 38//19 40//20 39//20 37//19
f 40//20 42//21 41//21 39//20
f 42//21 44//22 43//22 41//21
f 44//22 46//23 45//23 43//22
f 46//23 48//24 47//24 45//23
f 48//24 50//25 49//25 47//24
