# Blender v2.81 (sub 16) OBJ File: ''
# www.blender.org
mtllib HeadCircleCurve.mtl
o BezierCircle
v 0.000000 -0.370000 1.000000
v 0.000000 0.370000 1.000000
v -0.135661 -0.370000 0.990868
v -0.135661 0.370000 0.990868
v -0.265784 -0.370000 0.964268
v -0.265784 0.370000 0.964268
v -0.389178 -0.370000 0.921393
v -0.389178 0.370000 0.921393
v -0.504648 -0.370000 0.863435
v -0.504648 0.370000 0.863435
v -0.611002 -0.370000 0.791589
v -0.611002 0.370000 0.791589
v -0.707047 -0.370000 0.707047
v -0.707047 0.370000 0.707047
v -0.791589 -0.370000 0.611002
v -0.791589 0.370000 0.611002
v -0.863435 -0.370000 0.504648
v -0.863435 0.370000 0.504648
v -0.921393 -0.370000 0.389178
v -0.921393 0.370000 0.389178
v -0.964268 -0.370000 0.265784
v -0.964268 0.370000 0.265784
v -0.990868 -0.370000 0.135661
v -0.990868 0.370000 0.135661
v -1.000000 -0.370000 0.000000
v -1.000000 0.370000 0.000000
v -0.990868 -0.370000 -0.135661
v -0.990868 0.370000 -0.135661
v -0.964268 -0.370000 -0.265784
v -0.964268 0.370000 -0.265784
v -0.921393 -0.370000 -0.389178
v -0.921393 0.370000 -0.389178
v -0.863435 -0.370000 -0.504648
v -0.863435 0.370000 -0.504648
v -0.791589 -0.370000 -0.611002
v -0.791589 0.370000 -0.611002
v -0.707047 -0.370000 -0.707047
v -0.707047 0.370000 -0.707047
v -0.611002 -0.370000 -0.791589
v -0.611002 0.370000 -0.791589
v -0.504648 -0.370000 -0.863435
v -0.504648 0.370000 -0.863435
v -0.389178 -0.370000 -0.921393
v -0.389178 0.370000 -0.921393
v -0.265784 -0.370000 -0.964268
v -0.265784 0.370000 -0.964268
v -0.135661 -0.370000 -0.990868
v -0.135661 0.370000 -0.990868
v 0.000000 -0.370000 -1.000000
v 0.000000 0.370000 -1.000000
v 0.135661 -0.370000 -0.990868
v 0.135661 0.370000 -0.990868
v 0.265784 -0.370000 -0.964268
v 0.265784 0.370000 -0.964268
v 0.389178 -0.370000 -0.921393
v 0.389178 0.370000 -0.921393
v 0.504648 -0.370000 -0.863435
v 0.504648 0.370000 -0.863435
v 0.611002 -0.370000 -0.791589
v 0.611002 0.370000 -0.791589
v 0.707047 -0.370000 -0.707047
v 0.707047 0.370000 -0.707047
v 0.791589 -0.370000 -0.611002
v 0.791589 0.370000 -0.611002
v 0.863435 -0.370000 -0.504648
v 0.863435 0.370000 -0.504648
v 0.921393 -0.370000 -0.389178
v 0.921393 0.370000 -0.389178
v 0.964268 -0.370000 -0.265784
v 0.964268 0.370000 -0.265784
v 0.990868 -0.370000 -0.135661
v 0.990868 0.370000 -0.135661
v 1.000000 -0.370000 -0.000000
v 1.000000 0.370000 0.000000
v 0.990868 -0.370000 0.135661
v 0.990868 0.370000 0.135661
v 0.964268 -0.370000 0.265784
v 0.964268 0.370000 0.265784
v 0.921393 -0.370000 0.389178
v 0.921393 0.370000 0.389178
v 0.863435 -0.370000 0.504648
v 0.863435 0.370000 0.504648
v 0.791589 -0.370000 0.611002
v 0.791589 0.370000 0.611002
v 0.707047 -0.370000 0.707047
v 0.707047 0.370000 0.707047
v 0.611002 -0.370000 0.791589
v 0.611002 0.370000 0.791589
v 0.504648 -0.370000 0.863435
v 0.504648 0.370000 0.863435
v 0.389178 -0.370000 0.921393
v 0.389178 0.370000 0.921393
v 0.265784 -0.370000 0.964268
v 0.265784 0.370000 0.964268
v 0.135661 -0.370000 0.990868
v 0.135661 0.370000 0.990868
vn 0.0000 0.0000 1.0000
vn -0.1340 0.0000 0.9910
vn -0.2648 0.0000 0.9643
vn -0.3892 0.0000 0.9211
vn -0.5052 0.0000 0.8630
vn -0.6115 0.0000 0.7912
vn -0.7071 0.0000 0.7071
vn -0.7912 0.0000 0.6115
vn -0.8630 0.0000 0.5052
vn -0.9211 0.0000 0.3892
vn -0.9643 0.0000 0.2648
vn -0.9910 0.0000 0.1340
vn -1.0000 0.0000 0.0000
vn -0.9910 0.0000 -0.1340
vn -0.9643 0.0000 -0.2648
vn -0.9211 0.0000 -0.3892
vn -0.8630 0.0000 -0.5052
vn -0.7912 0.0000 -0.6115
vn -0.7071 0.0000 -0.7071
vn -0.6115 0.0000 -0.7912
vn -0.5052 0.0000 -0.8630
vn -0.3892 0.0000 -0.9211
vn -0.2648 0.0000 -0.9643
vn -0.1340 0.0000 -0.9910
vn 0.0000 0.0000 -1.0000
vn 0.1340 0.0000 -0.9910
vn 0.2648 0.0000 -0.9643
vn 0.3892 0.0000 -0.9211
vn 0.5052 0.0000 -0.8630
vn 0.6115 0.0000 -0.7912
vn 0.7071 0.0000 -0.7071
vn 0.7912 0.0000 -0.6115
vn 0.8630 0.0000 -0.5052
vn 0.9211 0.0000 -0.3892
vn 0.9643 0.0000 -0.2648
vn 0.9910 0.0000 -0.1340
vn 1.0000 0.0000 0.0000
vn 0.9910 0.0000 0.1340
vn 0.9643 0.0000 0.2648
vn 0.9211 0.0000 0.3892
vn 0.8630 0.0000 0.5052
vn 0.7912 0.0000 0.6115
vn 0.7071 0.0000 0.7071
vn 0.6115 0.0000 0.7912
vn 0.5052 0.0000 0.8630
vn 0.3892 0.0000 0.9211
vn 0.2648 0.0000 0.9643
vn 0.1340 0.0000 0.9910
usemtl None
s 1
f 2//1 4//2 3//2 1//1
f 4//2 6//3 5//3 3//2
f 6//3 8//4 7//4 5//3
f 8//4 10//5 9//5 7//4
f 10//5 12//6 11//6 9//5
f 12//6 14//7 13//7 11//6
f 14//7 16//8 15//8 13//7
f 16//8 18//9 17//9 15//8
f 18//9 20//10 19//10 17//9
f 20//10 22//11 21//11 19//10
f 22//11 24//12 23//12 21//11
f 24//12 26//13 25//13 23//12
f 26//13 28//14 27//14 25//13
f 28//14 30//15 29//15 27//14
f 30//15 32//16 31//16 29//15
f 32//16 34//17 33//17 31//16
f 34//17 36//18 35//18 33//17
f 36//18 38//19 37//19 35//18
f 38//19 40//20 39//20 37//19
f 40//20 42//21 41//21 39//20
f 42//21 44//22 43//22 41//21
f 44//22 46//23 45//23 43//22
f 46//23 48//24 47//24 45//23
f 48//24 50//25 49//25 47//24
f 50//25 52//26 51//26 49//25
f 52//26 54//27 53//27 51//26
f 54//27 56//28 55//28 53//27
f 56//28 58//29 57//29 55//28
f 58//29 60//30 59//30 57//29
f 60//30 62//31 61//31 59//30
f 62//31 64//32 63//32 61//31
f 64//32 66//33 65//33 63//32
f 66//33 68//34 67//34 65//33
f 68//34 70//35 69//35 67//34
f 70//35 72//36 71//36 69//35
f 72//36 74//37 73//37 71//36
f 74//37 76//38 75//38 73//37
f 76//38 78//39 77//39 75//38
f 78//39 80//40 79//40 77//39
f 80//40 82//41 81//41 79//40
f 82//41 84//42 83//42 81//41
f 84//42 86//43 85//43 83//42
f 86//43 88//44 87//44 85//43
f 88//44 90//45 89//45 87//44
f 90//45 92//46 91//46 89//45
f 92//46 94//47 93//47 91//46
f 94//47 96//48 95//48 93//47
f 96//48 2//1 1//1 95//48
